<svg xmlns="http://www.w3.org/2000/svg" viewBox="0 0 1702.36 2253.65"><defs><style>.cls-1{fill:#5e6262;}.cls-2{fill:#ff7b0a;}.cls-2,.cls-3,.cls-4{opacity:0.98;}.cls-2,.cls-3,.cls-4,.cls-5,.cls-6{isolation:isolate;}.cls-3{fill:none;stroke:#0076ff;stroke-linejoin:round;stroke-width:7.5px;}.cls-4,.cls-6{fill:#0076ff;}.cls-6{font-size:133.21px;font-family:ArialMT, Arial;}</style></defs><title>force-logo-icon</title><g id="Layer_2" data-name="Layer 2"><g id="Layer_1-2" data-name="Layer 1"><path id="path833" class="cls-1" d="M1018.4,0C453.59,8.87,0,510.76,0,1126.84s453.6,1118,1018.4,1126.81V1911.23c-417-9.07-750.79-390.39-750.79-857.66S601.41,205,1018.4,195.91Z"/><path id="path842" class="cls-2" d="M1031.4,272.4c-370.56,0-671,320.8-671,716.53h0c0,395.73,300.4,716.53,671,716.53s671-320.8,671-716.53S1402,272.4,1031.4,272.4Zm0,124.53c274.59,0,497.19,244.19,497.19,545.42h0c0,301.23-222.6,545.42-497.19,545.42S534.21,1243.58,534.21,942.35s222.6-545.42,497.19-545.42Z"/><rect id="rect848" class="cls-3" x="762.28" y="773.05" width="538.24" height="356.59"/><rect id="rect858" class="cls-4" x="1015.13" y="1126.27" width="32.54" height="63.14"/><rect id="rect860" class="cls-4" x="946.15" y="1182.39" width="170.5" height="22.43"/><g id="text864" class="cls-5"><text class="cls-6" transform="translate(936.44 998.47)">&lt;/&gt;</text></g></g></g></svg>